<?xml version="1.0" encoding="UTF-8"?>
<svg id="Livello_2" data-name="Livello 2" xmlns="http://www.w3.org/2000/svg" viewBox="0 0 160 36">
  <defs>
    <style>
      .cls-1, .cls-2 {
        fill: #fff;
      }

      .cls-3 {
        fill: #25d366;
      }

      .cls-2 {
        fill-rule: evenodd;
      }
    </style>
  </defs>
  <g id="Livello_1-2" data-name="Livello 1">
    <rect class="cls-3" width="160" height="36" rx="8" ry="8"/>
    <path class="cls-2" d="m21.79,8.79c2.42.01,4.75.96,6.5,2.64,1.79,1.71,2.82,4.01,2.91,6.49.09,2.42-.76,4.79-2.36,6.61-1.76,1.99-4.2,3.13-6.84,3.21-.09,0-.18,0-.27,0-1.42,0-2.83-.32-4.1-.93l-4.96,1.1s-.08-.02-.09-.06c0,0,0-.02,0-.02l.84-5.01c-.71-1.31-1.11-2.78-1.16-4.27-.07-2.53.84-4.93,2.58-6.77,1.8-1.91,4.26-2.97,6.89-2.97,0,0,.05,0,.05,0Zm-.05,1.64c-.08,0-.15,0-.23,0-4.31.12-7.72,3.73-7.6,8.05.04,1.32.41,2.61,1.07,3.74l.14.24-.62,3.4,3.37-.79.25.13c1.11.58,2.35.88,3.61.88.07,0,.15,0,.22,0,4.31-.12,7.72-3.73,7.6-8.05-.12-4.24-3.61-7.6-7.82-7.6Zm-3.27,3.25c.16,0,.32,0,.46.02.17.01.36.03.52.43.2.48.62,1.67.68,1.79.06.12.09.26,0,.42-.08.16-.13.25-.25.39-.12.14-.26.3-.37.41-.12.11-.25.24-.12.48.13.24.58,1.04,1.27,1.69.88.84,1.59,1.11,1.87,1.25.1.05.19.07.26.07.1,0,.18-.04.26-.12.15-.15.59-.67.78-.91.1-.13.19-.17.28-.17.08,0,.16.03.25.07.22.09,1.37.7,1.6.82.23.13.39.19.45.29.06.1.04.58-.17,1.13-.22.55-1.2,1.06-1.64,1.08-.13,0-.25.03-.42.03-.4,0-1.01-.1-2.42-.71-2.39-1.03-3.83-3.55-3.95-3.71-.11-.16-.93-1.32-.89-2.49.04-1.17.67-1.73.89-1.96.22-.22.46-.28.62-.28,0,0,.02,0,.02,0Z"/>
    <g>
      <path class="cls-1" d="m50.07,20.13c-.33,1.54-1.5,2.67-3.57,2.67-2.62,0-3.86-1.86-3.86-4.21s1.28-4.3,3.95-4.3c2.2,0,3.27,1.29,3.47,2.67h-1.79c-.17-.64-.62-1.27-1.74-1.27-1.47,0-2.04,1.33-2.04,2.83,0,1.4.49,2.87,2.09,2.87,1.17,0,1.54-.78,1.69-1.26h1.8Z"/>
      <path class="cls-1" d="m52.92,13.92v3.28c.27-.4.78-.88,1.78-.88,1.16,0,2.08.69,2.08,2.37v3.98h-1.71v-3.73c0-.81-.29-1.24-1.01-1.24-.96,0-1.14.71-1.14,1.67v3.29h-1.72v-8.75h1.72Z"/>
      <path class="cls-1" d="m63.4,21.07c0,.59.05,1.45.08,1.6h-1.64c-.05-.12-.08-.45-.09-.61-.23.35-.65.75-1.75.75-1.5,0-2.13-.98-2.13-1.95,0-1.41,1.14-2.07,2.96-2.07h.89v-.38c0-.44-.16-.88-.96-.88-.73,0-.88.31-.96.76h-1.63c.09-1.1.78-2,2.66-1.98,1.66.01,2.57.66,2.57,2.14v2.61Zm-1.68-1.22h-.7c-1.04,0-1.42.32-1.42.92,0,.45.28.83.89.83,1.09,0,1.23-.76,1.23-1.58v-.16Z"/>
      <path class="cls-1" d="m64.24,16.47h.96v-1.68h1.72v1.68h1.22v1.29h-1.22v3.06c0,.47.14.65.66.65.1,0,.26,0,.39-.02v1.18c-.34.12-.81.12-1.16.12-1.21,0-1.61-.65-1.61-1.73v-3.27h-.96v-1.29Z"/>
      <path class="cls-1" d="m73.37,20.81c.13.5.53.77,1.18.77s.87-.23.87-.6c0-.4-.27-.56-1.16-.77-2.02-.5-2.35-1.12-2.35-2s.65-1.88,2.52-1.88,2.52,1.03,2.57,1.87h-1.63c-.06-.23-.21-.66-1.02-.66-.57,0-.75.25-.75.53,0,.31.19.46,1.2.69,2.07.48,2.36,1.19,2.36,2.1,0,1.03-.78,1.96-2.67,1.96s-2.66-.91-2.8-2.01h1.69Z"/>
      <path class="cls-1" d="m83.68,20.87c0,.6,0,1.25.01,1.8h-1.68c-.02-.17-.04-.5-.05-.72-.37.62-.92.86-1.71.86-1.26,0-2.07-.77-2.07-2.31v-4.04h1.72v3.7c0,.69.21,1.25.96,1.25.78,0,1.11-.42,1.11-1.65v-3.3h1.72v4.4Z"/>
      <path class="cls-1" d="m89.67,22.68l-2.11-8.27h1.91c.77,3.8,1.13,5.48,1.22,6.39h.01c.31-1.52,1.11-4.4,1.59-6.39h1.61c.42,1.59,1.26,4.79,1.53,6.31h.01c.27-1.82,1.09-5.02,1.38-6.31h1.74l-2.24,8.27h-1.85c-.44-1.83-1.16-4.5-1.45-5.92h-.01c-.3,1.47-1.05,4.25-1.49,5.92h-1.85Z"/>
      <path class="cls-1" d="m101.1,13.92v3.28c.27-.4.78-.88,1.78-.88,1.16,0,2.08.69,2.08,2.37v3.98h-1.71v-3.73c0-.81-.29-1.24-1.01-1.24-.96,0-1.14.71-1.14,1.67v3.29h-1.72v-8.75h1.72Z"/>
      <path class="cls-1" d="m111.58,21.07c0,.59.05,1.45.08,1.6h-1.64c-.05-.12-.08-.45-.09-.61-.22.35-.65.75-1.75.75-1.5,0-2.13-.98-2.13-1.95,0-1.41,1.14-2.07,2.96-2.07h.89v-.38c0-.44-.16-.88-.96-.88-.73,0-.88.31-.96.76h-1.63c.09-1.1.78-2,2.66-1.98,1.66.01,2.57.66,2.57,2.14v2.61Zm-1.68-1.22h-.7c-1.04,0-1.42.32-1.42.92,0,.45.28.83.89.83,1.09,0,1.23-.76,1.23-1.58v-.16Z"/>
      <path class="cls-1" d="m112.42,16.47h.96v-1.68h1.72v1.68h1.22v1.29h-1.22v3.06c0,.47.14.65.66.65.09,0,.26,0,.39-.02v1.18c-.34.12-.81.12-1.16.12-1.21,0-1.61-.65-1.61-1.73v-3.27h-.96v-1.29Z"/>
      <path class="cls-1" d="m118.6,20.81c.13.5.53.77,1.18.77s.87-.23.87-.6c0-.4-.27-.56-1.16-.77-2.02-.5-2.35-1.12-2.35-2s.64-1.88,2.52-1.88,2.52,1.03,2.57,1.87h-1.63c-.06-.23-.21-.66-1.02-.66-.57,0-.75.25-.75.53,0,.31.19.46,1.2.69,2.07.48,2.36,1.19,2.36,2.1,0,1.03-.78,1.96-2.67,1.96s-2.66-.91-2.8-2.01h1.69Z"/>
      <path class="cls-1" d="m125.51,20.77l-.65,1.91h-1.76l2.81-8.27h2.25l2.93,8.27h-1.88l-.68-1.91h-3.02Zm2.64-1.46c-.59-1.75-.96-2.86-1.16-3.6h-.01c-.2.82-.62,2.11-1.09,3.6h2.26Z"/>
      <path class="cls-1" d="m133.76,22.13v2.93h-1.71v-7.09c0-.5,0-1-.01-1.5h1.66c.02.16.06.55.06.77.27-.46.82-.92,1.8-.92,1.39,0,2.47,1.17,2.47,3.09,0,2.19-1.2,3.4-2.71,3.4-.88,0-1.33-.33-1.57-.69Zm2.53-2.64c0-1.14-.46-1.78-1.28-1.78-.98,0-1.32.63-1.32,1.88,0,1.18.32,1.87,1.25,1.87s1.35-.71,1.35-1.97Z"/>
      <path class="cls-1" d="m140.94,22.13v2.93h-1.71v-7.09c0-.5,0-1-.01-1.5h1.66c.02.16.06.55.06.77.27-.46.82-.92,1.8-.92,1.39,0,2.47,1.17,2.47,3.09,0,2.19-1.2,3.4-2.71,3.4-.88,0-1.33-.33-1.57-.69Zm2.53-2.64c0-1.14-.46-1.78-1.28-1.78-.98,0-1.32.63-1.32,1.88,0,1.18.32,1.87,1.25,1.87s1.35-.71,1.35-1.97Z"/>
    </g>
  </g>
</svg>