<?xml version="1.0" encoding="UTF-8"?>
<svg id="Livello_1" data-name="Livello 1" xmlns="http://www.w3.org/2000/svg" viewBox="0 0 800 520">
  <defs>
    <style>
      .cls-1 {
        fill: #fff;
        fill-rule: evenodd;
      }
    </style>
  </defs>
  <path class="cls-1" d="m0,0h800v514.3c-1.98-.25-3.19-1.51-5.5-1-2.07.46-4.4,3.34-8,2-1.36-.51-.95-1.54-3-2-4.89,6.42-17.79,5.44-26.5,3.5-5.32-1.19-7.8,2.7-12,1.5-2.14-.61-2.77-3.33-5-2.5-2.85.74-2.95,2.35-7,2.5-.38-.47-4.14-3.87-4.5-4-2.58-.95-6.56.99-8.5-.5-.77-.59-1.98-3.18-2.5-4-3.34,2-12.86,4.71-19,3-2.28-.64-3.53-4.02-7-3l-1.5,1.5h-11c-2.35.69-6.89,2.41-9,3-2.5-.33-5-.67-7.5-1-4.04,1.34-3.78,4.88-11,5-2.2-3.01-4.07-1.43-8.5-2.5-.24-.06-.98-1.08-1.5-1-1.27.21-2.03,2.1-4.5,1.5-2.46-.6-4.02-3.43-6-4-2.46-.7-5.95,1.17-8.5-.5-1.28-.84-2.55-3.35-4-4-1.67-.17-3.33-.33-5-.5-.67-.67-1.33-1.33-2-2-2.11-.57-2.42,1.15-3.5,1.5h-7.5c-1.21.37-2.32,1.94-4.5,1.5-2.48-.5-3.35-2.81-5-3.5-2.5.17-5,.33-7.5.5-.65-.16-2.54-1.4-3-1.5-2.5-.57-6.47,1.45-8,2h-7c-3.38,1-8.08,1.09-11.5,2-3,.17-6,.33-9,.5-2.08.81-5.33,2.93-7.5,3.5-4.59,1.21-14.06-4.52-17.5-4-8.55,1.3-15.2,5.69-23,7-4.57.77-8.7-2.71-14-1-2.8.9-3.69,2.42-8,2.5-.08-.11-14.33-8.95-14.5-9-2.58-.77-9.65,1.13-13.5.5-1.74-.29-1.17-2.03-3.5-1.5l-1.5,1.5h-12c-.5.67-1,1.33-1.5,2-2.64,1.62-6.87.75-9.5,0h-8c-2.85-.9-13.67-4.71-16-1-1.17,1.53-.92,3.42-1.5,4.5-.59.4-.84.39-2,.5-2.2-2.12-7.9,1.79-10,1-1.47-.55-1.55-1.89-4.5-2v1c.38.54.3.47.5,1.5-1.02.36-2.34.5-4,.5-.57-.73-1-1.1-1.5-2-3.66,2.89-16.4,7.38-24,5-1.62-.51-1.68-2.65-4.5-2l-1,1c-4.17-.17-8.33-.33-12.5-.5-1.51.61-5.57,3.47-9,2.5l-1.5-1.5c-2.5-.17-5-.33-7.5-.5l-1.5-1.5c-2.69-1.05-5.18-.02-7.5-1-1.64-.7-2.62-2.48-4.5-3-4.17-.17-8.33-.33-12.5-.5-.95-.28-1.86-1.73-2.5-2h-8.5c-1.54,1.96-6.58,5.23-9,6-5-.17-10-.33-15-.5-.33.5-.67,1-1,1.5-5.85,2.65-14.46-3.29-18-5-2.54-1.22-3.66,1.55-6,1-3.34-.78-7.41-3.67-11.5-4-3.64,5.08-8.57.25-13.5-.5-4.9-.74-8.3,4.77-14,2.5-2.63-1.05-6.4-4.41-11.5-3-3.15.87-6.27,4.12-9.5,5-2.91.8-5.88-1.01-8-1.5-5.65-1.29-8.43,2.65-13,1.5-2.04-.51-3.28-2.32-5-3-2.59-1.03-4.61-.72-7-2-.67-.67-1.33-1.33-2-2h-12c-.79-.27-1.71-1.73-2.5-2-2.29-.77-15.79-.72-17.5,0-1.28.54-3.72,2.52-5.5,3-2.61.71-3.51-.84-6-1-.99,1.59-2.28,2.68-3.5,4-5.54.05-10.71-.62-15-1-1.06,1.72-1.69,2.41-4.5,2.5-1.01-1.06-1.47-1.33-3.5-1.5-.99,1.42-1.51,1.51-4,1.5-1.99-1.97-3.64-.51-7-1.5-1.85-.55-7.21-5-10-4-.65.23-2.02,1.86-3,2-2.53.36-3.82-3.57-7-2-3.89,1.92-6.71,5.65-12,6-6.72-5.98-12.79,1.04-18,2V0Z"/>
</svg>